<?xml version="1.0" encoding="UTF-8" standalone="no"?>
<!DOCTYPE svg PUBLIC "-//W3C//DTD SVG 1.1//EN" "http://www.w3.org/Graphics/SVG/1.1/DTD/svg11.dtd">
<svg width="100%" height="100%" viewBox="0 0 146 134" version="1.1" xmlns="http://www.w3.org/2000/svg" xmlns:xlink="http://www.w3.org/1999/xlink" xml:space="preserve" xmlns:serif="http://www.serif.com/" style="fill-rule:evenodd;clip-rule:evenodd;stroke-linejoin:round;stroke-miterlimit:2;">
    <g transform="matrix(1,0,0,1,-1.07548,-1)">
        <path d="M117.531,1C117.992,11.733 130.829,20.244 141.179,16.354C142.662,15.796 144.111,15.147 146.094,14.326C146.047,19.08 142.709,20.196 139.863,21.521C136.712,22.988 133.309,23.931 130.21,25.487C128.665,26.262 127.551,27.898 125.81,29.641C123.755,31.459 122.285,33.624 120.484,33.948C114.318,35.056 113.471,38.919 113.836,44.153C108.284,44.747 103.159,45.061 98.095,45.794C95.94,46.106 93.42,46.779 91.939,48.199C89.586,50.455 90.118,53.323 92.341,55.749C98.266,62.215 104.103,68.766 110.148,75.118C112.231,77.307 114.826,79.009 117.187,80.934C115.104,81.931 113.485,81.996 112,81.582C106.481,80.041 103.995,84.339 101.598,87.584C100.47,89.112 101.099,92.54 101.903,94.754C103.181,98.276 105.273,101.503 106.978,104.774C100.835,111.154 100.71,117.233 105.953,123.815C107.621,125.91 108.409,128.706 109.6,131.181C109.103,131.463 108.605,131.744 108.108,132.026C106.937,130.715 105.843,129.324 104.582,128.107C99.317,123.028 94.268,117.123 85.988,118.107C80.949,118.706 77.515,117.096 74.107,113.598C69.653,109.026 65.892,109.589 62.178,114.891C60.464,117.337 59.091,120.022 57.842,122.129C55.323,111.461 47.632,103.448 43.089,93.503C41.368,91.995 39.719,90.837 37.967,89.605C36.036,95.666 34.57,100.654 32.777,105.522C32.462,106.378 30.773,106.728 29.718,107.312C25.534,106.757 23.02,108.011 20.78,112.206C16.695,119.856 11.409,126.864 6.299,134.06C5.974,133.98 6.019,134.012 6.019,134.012C10.312,124.754 8.352,116.632 1.271,109.196C1,80.312 1,51.625 1.338,22.333C5.882,20.607 10.088,19.485 13.901,18.468C10.77,15.747 6.861,12.35 3.229,8.637C8.933,12.004 14.36,15.688 19.787,19.372C20.076,19.23 20.366,19.087 20.656,18.945C18.517,15.232 16.378,11.52 14.423,8.127C17.79,5.621 20.895,3.311 24,1L117.531,1Z" style="fill:rgb(239,61,53);fill-rule:nonzero;"/>
    </g>
</svg>
