<?xml version="1.0" encoding="UTF-8" standalone="no"?>
<svg
   width="149.98055"
   height="154.645"
   viewBox="0 0 149.98055 154.645"
   version="1.1"
   xml:space="preserve"
   style="clip-rule:evenodd;fill-rule:evenodd;stroke-linejoin:round;stroke-miterlimit:2"
   id="svg10"
   sodipodi:docname="5bf3a6d0900fb79cfcb6f0614e709df3.svg"
   xmlns:inkscape="http://www.inkscape.org/namespaces/inkscape"
   xmlns:sodipodi="http://sodipodi.sourceforge.net/DTD/sodipodi-0.dtd"
   xmlns="http://www.w3.org/2000/svg"
   xmlns:svg="http://www.w3.org/2000/svg"><defs
   id="defs14" /><sodipodi:namedview
   id="namedview12"
   pagecolor="#ffffff"
   bordercolor="#666666"
   borderopacity="1.0"
   inkscape:pageshadow="2"
   inkscape:pageopacity="0.0"
   inkscape:pagecheckerboard="0" />
    <g
   transform="translate(-445.926,-688.355)"
   id="g4">
        <path
   d="m 568.929,736.964 c 4.755,1.703 9.466,3.552 14.284,5.056 2.964,0.925 6.092,1.323 8.766,2.651 -6.499,0.68 -12.998,1.36 -19.536,2.044 -1.517,4.357 -0.44,6.956 3.624,9.101 2.975,1.57 5.24,4.487 7.817,6.809 3.812,3.435 7.62,6.875 11.773,10.344 0.343,0.031 0.343,0.531 -0.066,0.758 -1.07,0.174 -1.738,0.163 -2.391,0.061 -10.963,-1.7 -14.145,1.918 -11.225,12.685 0.423,1.561 1.278,3.685 0.627,4.747 -4.112,6.699 -4.954,13.404 -0.923,20.748 -2.697,-1.573 -4.557,-3.59 -6.747,-5.142 -1.757,-1.246 -3.913,-1.929 -6.125,-3.12 -3.393,-5.433 -7.648,-3.531 -11.437,-1.696 -1.319,-1.653 -2.307,-2.892 -3.483,-4.407 -1.927,-2.361 -3.665,-4.445 -5.495,-6.639 -4.014,2.345 -3.303,6.284 -3.432,10.352 -0.733,5.139 -1.412,9.87 -2.16,14.973 0.017,1.328 0.105,2.285 0.244,3.807 -1.334,-1.049 -2.204,-1.765 -3.107,-2.438 -4.787,-3.57 -8.995,-2.45 -12.193,2.507 -1.357,2.103 -3.968,3.432 -6.097,4.993 -2.103,1.543 -5.071,2.469 -6.326,4.492 -2.578,4.158 -4.266,8.868 -6.321,13.35 h -0.75 c -0.205,-2.773 -0.934,-5.863 0.045,-8.255 2.079,-5.082 -0.07,-8.716 -3.596,-11.254 -2.758,-1.986 -2.95,-3.947 -2.33,-7.371 0.977,-7.224 -0.818,-10.346 -6.726,-10.794 -2.464,-0.186 -5.086,1.725 -7.64,2.678 -0.005,-0.005 -0.018,-0.017 -0.055,-0.383 0.73,-2.384 1.497,-4.403 2.551,-6.641 2.807,-6.695 5.469,-13.123 7.732,-19.688 0.471,-1.367 -0.033,-3.711 -1.003,-4.756 -0.983,-1.059 -3.27,-1.756 -4.689,-1.407 -4.602,1.135 -9.069,2.822 -14.296,4.527 0.36,-5.473 -2.498,-6.616 -6.92,-5.759 -0.868,0.168 -2.091,-0.198 -2.808,-0.757 -4.446,-3.469 -9.63,-2.918 -14.767,-3.215 -2.645,-0.153 -5.217,-1.559 -7.822,-2.398 12.624,-0.193 19.469,-6.864 18.577,-18.887 14.394,-8.482 16.021,-12.987 8.023,-22.67 2.948,0.711 5.777,2.032 8.558,1.937 6.88,-0.235 13.734,-1.179 20.608,-1.719 5.218,-0.411 7.65,-2.754 7.501,-7.936 -0.192,-6.645 -2.152,-12.503 -8.196,-16.252 -0.029,0.021 -0.09,0.057 0.257,-0.142 2.01,0.516 3.682,1.207 5.331,1.949 5.728,2.575 11.307,5.579 17.225,7.59 3.213,1.092 5.245,2.685 6.081,5.653 1.146,4.067 4.173,5.299 7.78,5.868 1.404,0.221 2.843,0.214 4.671,0.339 -0.635,3.018 -1.258,5.571 -1.611,8.162 -0.046,0.339 1.296,0.868 2.064,1.569 0.341,0.565 0.613,0.871 0.884,1.176 0.165,-0.19 0.329,-0.379 0.494,-0.569 -0.47,-0.303 -0.939,-0.605 -1.512,-1.115 -0.104,-0.207 0.251,-0.504 0.582,-0.504 1.144,-0.261 1.957,-0.522 3.154,-0.877 2.731,-0.492 5.076,-0.889 7.798,-1.221 4.255,3.527 8.903,5.395 13.878,6.594 0.307,0.075 0.571,0.324 0.856,0.492 z"
   style="fill:#ee3d36;fill-rule:nonzero"
   id="path2" />
    </g>
    <g
   transform="translate(-445.926,-688.355)"
   id="g8">
        <path
   d="m 568.913,698.616 c -5.068,6.688 -9.995,13.066 -15.289,19.935 -2.783,4.542 -5.197,8.592 -7.612,12.642 -0.812,0.261 -1.625,0.522 -2.717,0.432 3.416,-6.388 7.112,-12.423 10.808,-18.459 4.881,-5.931 9.761,-11.862 14.817,-18.094 1.796,-2.44 3.416,-4.578 5.036,-6.717 0.588,0.535 1.177,1.07 1.765,1.605 -2.222,2.782 -4.444,5.564 -6.808,8.656 z"
   style="fill:#e24d41;fill-rule:nonzero"
   id="path6" />
    </g>
</svg>
