<?xml version="1.0" encoding="UTF-8" standalone="no"?>
<!DOCTYPE svg PUBLIC "-//W3C//DTD SVG 1.1//EN" "http://www.w3.org/Graphics/SVG/1.1/DTD/svg11.dtd">
<svg width="100" height="100" viewBox="0 0 100 100" version="1.1" xmlns="http://www.w3.org/2000/svg"
     xml:space="preserve">
    <path d="M55.075,13.647C55.11,13.628 55.183,13.586 55.328,13.503C57.338,14.019 59.01,14.71 60.659,15.452C66.387,18.027 71.966,21.031 77.884,23.042C81.097,24.134 83.129,25.727 83.965,28.695C85.111,32.762 88.138,33.994 91.745,34.563C93.149,34.784 94.588,34.777 96.416,34.902C95.781,37.92 95.158,40.473 94.805,43.064C94.759,43.403 96.101,43.932 96.869,44.633C97.21,45.198 97.482,45.504 97.753,45.809C97.918,45.619 98.082,45.43 98.247,45.24C97.777,44.937 97.308,44.635 96.735,44.125C96.631,43.918 96.986,43.621 97.317,43.621C98.461,43.36 99.274,43.099 100.471,42.744C103.202,42.252 105.547,41.855 108.269,41.523C112.524,45.05 117.172,46.918 122.147,48.117C122.454,48.192 122.718,48.441 123.003,48.609C127.758,50.312 132.469,52.161 137.287,53.665C140.251,54.59 143.379,54.988 146.053,56.316C139.554,56.996 133.055,57.676 126.517,58.36C125,62.717 126.077,65.316 130.141,67.461C133.116,69.031 135.381,71.948 137.958,74.27C141.77,77.705 145.578,81.145 149.731,84.614C150.074,84.645 150.074,85.145 149.665,85.372C148.595,85.546 147.927,85.535 147.274,85.433C136.311,83.733 133.129,87.351 136.049,98.118C136.472,99.679 137.327,101.803 136.676,102.865C132.564,109.564 131.722,116.269 135.753,123.613C133.056,122.04 131.196,120.023 129.006,118.471C127.249,117.225 125.093,116.542 122.881,115.351C119.488,109.918 115.233,111.82 111.444,113.655C110.125,112.002 109.137,110.763 107.961,109.248C106.034,106.887 104.296,104.803 102.466,102.609C98.452,104.954 99.163,108.893 99.034,112.961C98.301,118.1 97.622,122.831 96.874,127.934C96.891,129.262 96.979,130.219 97.118,131.741C95.784,130.692 94.914,129.976 94.011,129.303C89.224,125.733 85.016,126.853 81.818,131.81C80.461,133.913 77.85,135.242 75.721,136.803C73.618,138.346 70.65,139.272 69.395,141.295C66.817,145.453 65.129,150.163 63.074,154.645L62.324,154.645C62.119,151.872 61.39,148.782 62.369,146.39C64.448,141.308 62.299,137.674 58.773,135.136C56.015,133.15 55.823,131.189 56.443,127.765C57.42,120.541 55.625,117.419 49.717,116.971C47.253,116.785 44.631,118.696 42.077,119.649C42.072,119.644 42.059,119.632 42.022,119.266C42.752,116.882 43.519,114.863 44.573,112.625C47.38,105.93 50.042,99.502 52.305,92.937C52.776,91.57 52.272,89.226 51.302,88.181C50.319,87.122 48.032,86.425 46.613,86.774C42.011,87.909 37.544,89.596 32.317,91.301C32.677,85.828 29.819,84.685 25.397,85.542C24.529,85.71 23.306,85.344 22.589,84.785C18.143,81.316 12.959,81.867 7.822,81.57C5.177,81.417 2.605,80.011 0,79.172C12.624,78.979 19.469,72.308 18.577,60.285C32.971,51.803 34.598,47.298 26.6,37.615C29.548,38.326 32.377,39.647 35.158,39.552C42.038,39.317 48.892,38.373 55.766,37.833C60.984,37.422 63.416,35.079 63.267,29.897C63.075,23.253 61.116,17.396 55.075,13.647ZM122.987,10.261C117.919,16.949 112.992,23.327 107.698,30.196C104.915,34.738 102.501,38.788 100.086,42.838C99.274,43.099 98.461,43.36 97.369,43.27C100.785,36.882 104.481,30.847 108.177,24.811C113.058,18.88 117.938,12.949 122.994,6.717C124.79,4.277 126.41,2.139 128.03,0C128.618,0.535 129.207,1.07 129.795,1.605C127.573,4.387 125.351,7.169 122.987,10.261ZM55.075,13.647L55.071,13.645C55.054,13.657 55.026,13.675 55.075,13.647Z"
          style="fill:rgb(238,61,54);fill-rule:nonzero"
          transform="rotate(180 50 50)"
          opacity="0.5"/>

</svg>
