<?xml version="1.0" encoding="UTF-8" standalone="no"?>
<!DOCTYPE svg PUBLIC "-//W3C//DTD SVG 1.1//EN" "http://www.w3.org/Graphics/SVG/1.1/DTD/svg11.dtd">
<svg width="100%" height="100%" viewBox="0 0 102 91" version="1.1" xmlns="http://www.w3.org/2000/svg" xmlns:xlink="http://www.w3.org/1999/xlink" xml:space="preserve" xmlns:serif="http://www.serif.com/" style="fill-rule:evenodd;clip-rule:evenodd;stroke-linejoin:round;stroke-miterlimit:2;">
    <g transform="matrix(1,0,0,1,-43,-710)">
        <path d="M490.211,801.199C489.445,803.218 488.678,805.237 487.804,807.648C487.801,808.03 487.904,808.02 488.007,808.009C490.557,807.051 493.179,805.14 495.643,805.326C501.551,805.774 503.346,808.896 502.318,815.706C345.001,816.021 187.895,816.021 29.871,816.021C29.871,813.468 29.871,811.231 29.871,808.994C29.872,577.894 29.872,346.794 29.869,115.694C29.869,113.195 29.815,110.697 29.752,107.755C30.773,106.728 32.462,106.378 32.777,105.522C34.57,100.654 36.036,95.666 37.967,89.605C39.719,90.837 41.368,91.995 43.087,93.987C43.156,310.18 43.156,525.539 43.156,740.357C50.636,742.083 50.623,748.852 54.055,753.269C59.401,750.663 58.67,744.888 60.486,740.567C62.379,736.062 63.736,731.332 65.255,726.912C65.44,727.157 66.029,727.943 66.623,728.725C71.675,735.373 74.107,735.367 79.645,729.088C80.838,727.736 82.8,726.181 84.375,726.215C89.039,726.317 92.397,724.24 95.236,721.017C97.501,718.446 99.492,715.634 102.443,711.856C101.908,714.64 102.066,716.511 101.238,717.688C96.775,724.022 98.715,729.168 103.914,733.625C98.74,744.765 99.18,750.726 113.435,750.284C112.994,751.099 112.669,751.844 112.222,752.507C108.064,758.669 103.732,764.721 99.822,771.035C98.861,772.587 98.749,775.109 99.216,776.937C99.509,778.083 101.628,779.547 102.899,779.519C107.488,779.417 112.065,778.745 117.147,778.238C116.999,782.657 118.779,785.101 123.313,784.847C124.168,784.8 125.307,785.478 125.922,786.17C129.53,790.231 134.533,790.745 139.355,792.019C141.44,792.569 143.127,794.63 145.003,795.998C145.012,795.991 145.037,795.975 144.651,796.137C137.826,794.209 132.418,795.685 128.3,800.998L134.45,800.998C250.876,800.999 367.302,800.999 483.728,801.01C485.889,801.01 488.05,801.133 490.211,801.199Z" style="fill:rgb(193,151,78);fill-rule:nonzero;"/>
    </g>
</svg>
